<?xml version="1.0" encoding="utf-8"?>
<!-- Generator: Adobe Illustrator 22.1.0, SVG Export Plug-In . SVG Version: 6.00 Build 0)  -->
<!DOCTYPE svg PUBLIC "-//W3C//DTD SVG 1.0//EN" "http://www.w3.org/TR/2001/REC-SVG-20010904/DTD/svg10.dtd">
<svg version="1.0" id="Layer_1" xmlns="http://www.w3.org/2000/svg" xmlns:xlink="http://www.w3.org/1999/xlink" x="0px" y="0px"
	 viewBox="0 0 1920 1080" enable-background="new 0 0 1920 1080" xml:space="preserve">
<path fill="#FFFFFF" d="M0,0v292c99.6-66.6,124.2-120.7,200.7-153c164.6-69.6,258.1,26.9,431.4-3c79.8-13.8,196.9-81.2,309-88.9
	c29.9-5.9,60.8-9,92.4-9c252.1,0,456.4,195.5,456.4,436.7c0,193.3-131.3,357.2-313.2,414.6c-14.9,4.7-28.6,11.4-40.3,20.3
	c-3.7,2.8-7.5,5.5-11.4,8.1c-109.2,72.6-194.9-24.9-292.7-8.3c-149.7,25.3-236.1,133.9-354.2,146.6
	c-179.6,19.2-221.9-83.4-366.6-168.9C77.2,866.8,39,849.4,0,833.6V1080h1920V0H0z"/>
</svg>
