<?xml version="1.0" encoding="utf-8"?>
<!-- Generator: Adobe Illustrator 22.1.0, SVG Export Plug-In . SVG Version: 6.00 Build 0)  -->
<!DOCTYPE svg PUBLIC "-//W3C//DTD SVG 1.0//EN" "http://www.w3.org/TR/2001/REC-SVG-20010904/DTD/svg10.dtd">
<svg version="1.0" id="Layer_1" xmlns="http://www.w3.org/2000/svg" xmlns:xlink="http://www.w3.org/1999/xlink" x="0px" y="0px"
	 viewBox="0 0 1920 1036.7" enable-background="new 0 0 1920 1036.7" xml:space="preserve">
<path fill="#FFFFFF" stroke="#6BA442" stroke-width="6" stroke-miterlimit="10" d="M-20-21.6v270.5c127.4-66,154-100.3,236.4-132.4
	c177.5-69.1,278.3,26.7,465.2-3c86.1-13.7,210.2-76.6,332.1-91c33.7-2.9,66.6-6.2,100.7-6.2c271.8,0,532.4,201.5,532.4,440.8
	c0,191.8-183.8,331.8-371.8,408.6c-16.1,6.6-60.4,32.6-64.7,35.2c-117.7,72-226.1-22.9-331.6-6.5c-161.4,25.1-237.1,106-364.4,118.6
	c-193.6,19.1-238.1-69.3-394.1-154.3C83.2,838.7,42,821.5-20,805.8v255.6h1990v-1083H-20z"/>
</svg>
