<svg id="Layer_1" data-name="Layer 1" xmlns="http://www.w3.org/2000/svg" viewBox="0 0 1920 200" preserveAspectRatio="none">
	<style type="text/css">
		.st0{fill:#FFFFFF;}
	</style>
<!-- pretty good one <path class="st0" d="M866,200c-140.1,0-113-49-132.7-102.3C704.8,29.7,637.6,0,559.3,0L0,4v196h748C748,200,877,200,866,200z"/> -->

<path class="st0" d="M963.4,196c-46.2,0-56.1-19.3-73.5-35c-2.2-2.5-4.5-5-7-7.5c0,0-2.2-2.3-6.4-6.3h0
	c-18.9-17.9-79.1-69.9-167.7-101.9C612.6,10.5,389.2-16.5,0,11.8V200h892.7h21.2h7.3H1920v-4H963.4z"/>
	
	</svg>
