<?xml version="1.0" encoding="utf-8"?>
<!-- Generator: Adobe Illustrator 22.1.0, SVG Export Plug-In . SVG Version: 6.00 Build 0)  -->
<!DOCTYPE svg PUBLIC "-//W3C//DTD SVG 1.0//EN" "http://www.w3.org/TR/2001/REC-SVG-20010904/DTD/svg10.dtd">
<svg version="1.0" id="Layer_1" xmlns="http://www.w3.org/2000/svg" xmlns:xlink="http://www.w3.org/1999/xlink" x="0px" y="0px"
	 viewBox="0 0 600 252" enable-background="new 0 0 600 252" xml:space="preserve">
<g>
	<path fill="#FFFFFF" d="M67.6,251.5c-0.7,0-1.2-0.6-1.2-1.2c0,0,0-39.1-2.8-41.6c-8.4-7.3-20.5-7.8-28.2-21.9
		c-7.6-14.1,2.6-25.1,0.9-37.7c-2.7-19.3-14.1-30.4-15.4-45.7c-2-23.1,8.8-28.6,17.8-47.3C48.5,35.5,52.8,7.7,64.3,2
		C85.9-8.9,100.7,30.6,108.6,69c4.5,22,17.8,31.1,17.8,52.7c0,14.3-12,22-8.9,50.2c3.2,28.9-28.6,29.6-32.2,34.9
		c-6,8.5-4.6,43.5-4.6,43.5c0,0.7-0.5,1.2-1.2,1.2H67.6z"/>
</g>
<g>
	<g>
		<path fill="#FFFFFF" d="M193.1,3c0,0.8-0.5,1.5-1.5,2c-1,0.6-2.2,0.8-3.6,0.8h-6.4c-1.4,0-2.6,0.5-3.6,1.4c-1,1-1.5,2.1-1.5,3.4
			v36.1c0,1.4-0.4,2.6-1.1,3.6c-0.8,1-1.6,1.5-2.6,1.5c-1.1,0-2.1-0.5-2.8-1.5c-0.8-1-1.1-2.2-1.1-3.6V10.7c0-1.3-0.5-2.5-1.5-3.4
			c-1-1-2.2-1.4-3.6-1.4h-6.4c-1.3,0-2.5-0.3-3.5-0.8c-1-0.6-1.6-1.2-1.6-2c0-0.8,0.5-1.5,1.6-2c1-0.6,2.2-0.9,3.5-0.9h6.4h9.1h8.9
			h6.4c1.4,0,2.6,0.3,3.6,0.9C192.6,1.5,193.1,2.2,193.1,3z"/>
		<path fill="#FFFFFF" d="M231.7,0c1,0,1.8,0.5,2.5,1.6c0.7,1,1,2.2,1,3.5v13.1v7.8v8v13.1c0,1.3-0.4,2.5-1,3.4
			c-0.7,1-1.5,1.4-2.5,1.4c-1,0-1.8-0.5-2.5-1.4c-0.7-1-1-2.1-1-3.4V33.8c0-1.4-0.5-2.6-1.5-3.6c-1-1-2.2-1.5-3.7-1.5H214
			c-1.3,0-2.4,0.5-3.5,1.5c-1,1-1.5,2.2-1.5,3.6v13.1c0,1.3-0.3,2.5-1,3.4c-0.7,1-1.5,1.4-2.5,1.4c-1,0-1.8-0.5-2.5-1.4
			c-0.7-1-1.1-2.1-1.1-3.4V33.8v-8v-7.8V5c0-1.3,0.4-2.4,1.1-3.5c0.7-1,1.6-1.6,2.5-1.6c1,0,1.8,0.5,2.5,1.6c0.7,1,1,2.2,1,3.5v13.1
			c0,1.5,0.5,2.7,1.5,3.7c1,1,2.2,1.5,3.5,1.5h9.1c1.5,0,2.7-0.5,3.7-1.5c1-1,1.5-2.2,1.5-3.7V5c0-1.3,0.3-2.4,1-3.5
			C229.9,0.5,230.7,0,231.7,0z"/>
		<path fill="#FFFFFF" d="M275.7,47.2c0.9,0.5,1.4,1.2,1.4,2c0,0.7-0.5,1.4-1.4,1.9c-0.9,0.5-2.1,0.8-3.4,0.8h-12.1h-5.6h-0.7
			c-1.3,0-2.3-0.2-3.1-0.6c-0.8-0.4-1.4-0.9-1.8-1.5c-0.4-0.6-0.7-1.2-0.8-1.8c-0.1-0.6-0.2-1.1-0.3-1.5v-0.7v-4.4V34v-8.1v-7.6
			v-7.5V6.6c0-1.2,0.2-2.2,0.5-3c0.3-0.8,0.7-1.4,1.2-1.9c0.5-0.5,1-0.8,1.6-1c0.6-0.2,1.1-0.4,1.5-0.5h2.1h5.4h12.1
			c1.3,0,2.5,0.3,3.4,0.8c0.9,0.5,1.4,1.2,1.4,2c0,0.8-0.5,1.5-1.4,2.1c-0.9,0.6-2.1,0.9-3.4,0.9h-12.1c-1.4,0-2.5,0.5-3.5,1.4
			c-0.9,0.9-1.4,2.1-1.4,3.5v5.5c0,1.3,0.5,2.5,1.4,3.4c0.9,1,2.1,1.4,3.5,1.4h9.7c1.3,0,2.5,0.3,3.4,0.9c1,0.6,1.4,1.3,1.4,2
			c0,0.8-0.5,1.5-1.4,2c-1,0.5-2.1,0.8-3.4,0.8h-9.7c-1.4,0-2.5,0.5-3.5,1.5c-0.9,1-1.4,2.2-1.4,3.6v9.4c0,1.4,0.5,2.6,1.4,3.6
			c0.9,1,2.1,1.5,3.5,1.5h12.1C273.7,46.4,274.8,46.7,275.7,47.2z"/>
	</g>
	<g>
		<path fill="#FFFFFF" d="M213,158.8c-0.8-2.7-2.4-4.9-4.9-6.6c-2.5-1.7-5.1-2.5-7.7-2.5h-18.9c-2.6,0-5.2,0.8-7.8,2.5
			c-2.5,1.7-4.3,3.9-5.2,6.6l-2,5.2c-0.8,2.7-2.1,4.9-4.1,6.6c-2,1.7-3.8,2.5-5.5,2.5c-2,0-3.4-0.8-4.2-2.5
			c-0.8-1.7-0.8-3.9,0.3-6.6l28.1-82c0.4-1.2,0.9-2.4,1.6-3.5c0.7-1.1,1.5-2,2.4-2.9c0.9-0.8,1.8-1.5,2.8-2c1-0.5,1.9-0.8,2.7-0.8
			c2,0,4,0.9,6,2.8c2,1.9,3.4,4,4.2,6.3l28.1,82c0.9,2.7,1,4.9,0.2,6.6c-0.8,1.7-2.2,2.5-4.2,2.5c-1.9,0-3.8-0.8-5.6-2.5
			c-1.9-1.7-3.2-3.9-3.9-6.6L213,158.8z M196.5,138.5c2.7,0,4.7-0.9,6-2.7c1.3-1.8,1.5-4,0.8-6.4l-9.2-27.1c-0.9-2.4-2-3.7-3.1-3.7
			c-1.1,0-2.2,1.2-3.1,3.7l-9.2,27.1c-1,2.4-0.8,4.6,0.6,6.4c1.4,1.8,3.5,2.7,6.2,2.7H196.5z"/>
		<path fill="#FFFFFF" d="M296.7,73.5c1.9,0,3.3,0.9,4.4,2.7c1,1.8,1.1,4,0.3,6.6l-27.9,80.8c-0.8,2.5-2.3,4.7-4.3,6.3
			c-2,1.7-4,2.5-5.8,2.5c-2.2,0-4.2-0.8-6.1-2.5c-1.9-1.7-3.4-3.8-4.4-6.3l-27.5-80.8c-0.8-2.5-0.8-4.7,0.1-6.6
			c0.9-1.8,2.4-2.7,4.6-2.7c1.9,0,3.7,0.9,5.6,2.7c1.8,1.8,3.1,4,3.7,6.6l21.1,63c0.8,2.5,1.8,3.8,3,3.8c1.1,0,2.1-1.3,3-3.8
			l20.7-63c0.8-2.5,2.1-4.7,3.9-6.6C292.6,74.5,294.5,73.5,296.7,73.5z"/>
		<path fill="#FFFFFF" d="M368.3,163.6c1.8,1,2.7,2.3,2.7,3.8c0,1.4-0.9,2.6-2.7,3.6c-1.8,1-3.9,1.5-6.5,1.5h-23.1H328h-1.3
			c-2.4,0-4.4-0.4-5.8-1.2c-1.5-0.8-2.6-1.8-3.4-2.9c-0.8-1.1-1.3-2.3-1.6-3.5c-0.3-1.2-0.5-2.1-0.6-2.9v-1.3v-8.5v-14V123v-14.5
			V94.1v-8c0-2.3,0.3-4.3,0.9-5.8c0.6-1.5,1.4-2.7,2.3-3.6c0.9-0.9,1.9-1.6,3-2c1.1-0.4,2-0.7,2.9-0.9h3.9h10.3h23.1
			c2.5,0,4.7,0.5,6.5,1.5c1.8,1,2.7,2.3,2.7,3.8s-0.9,2.8-2.7,3.9c-1.8,1.1-3.9,1.7-6.5,1.7h-23.1c-2.6,0-4.8,0.9-6.6,2.7
			c-1.8,1.8-2.7,4-2.7,6.6v10.4c0,2.5,0.9,4.7,2.7,6.6c1.8,1.8,4,2.7,6.6,2.7h18.5c2.5,0,4.7,0.6,6.6,1.7c1.8,1.1,2.7,2.4,2.7,3.8
			c0,1.5-0.9,2.8-2.7,3.8c-1.8,1-4,1.5-6.6,1.5h-18.5c-2.6,0-4.8,0.9-6.6,2.8c-1.8,1.9-2.7,4.2-2.7,6.9v17.9c0,2.7,0.9,5,2.7,6.9
			c1.8,1.9,4,2.8,6.6,2.8h23.1C364.3,162.1,366.5,162.6,368.3,163.6z"/>
		<path fill="#FFFFFF" d="M441.3,74c1.9,0,3.5,0.9,4.8,2.8c1.3,1.9,2,4.2,2,6.9v79.2c0,2.7-0.7,5-2,6.8c-1.3,1.8-2.9,2.7-4.8,2.7
			c-0.9,0-1.9-0.2-3-0.6c-1-0.4-2-1-3-1.8c-1-0.8-1.9-1.7-2.7-2.7c-0.8-1-1.6-2-2.1-3.2l-27.9-54.7c-1-2.3-2-3.4-2.8-3.2
			c-0.8,0.2-1.3,1.6-1.3,4.1v52.6c0,2.7-0.7,5-2,6.8c-1.3,1.8-2.9,2.7-4.8,2.7c-1.9,0-3.5-0.9-4.7-2.7c-1.3-1.8-1.9-4.1-1.9-6.8
			V83.7c0-2.7,0.6-5,1.9-6.9c1.3-1.9,2.8-2.8,4.7-2.8c1.9,0,3.9,0.8,6.1,2.5c2.2,1.7,3.8,3.8,4.8,6.3l27.9,54.6c1,2.3,2,3.4,2.9,3.2
			c0.9-0.2,1.3-1.7,1.3-4.4V83.7c0-2.7,0.6-5,1.9-6.9C437.8,74.9,439.4,74,441.3,74z"/>
		<path fill="#FFFFFF" d="M528.8,138.7c0,2.4-0.1,4.9-0.4,7.3c-0.2,2.4-0.7,4.8-1.5,7.2c-2.2,5.5-5.6,10-10.3,13.3
			c-2.4,1.7-5.1,3-8,4c-2.9,1-5.8,1.6-8.8,1.8c-3,0.2-6,0.1-9.1-0.4c-3.1-0.5-5.9-1.3-8.5-2.4c-5.4-2.2-9.5-5.5-12.5-10
			c-3-4.5-4.7-9.5-5.3-14.9c-0.2-4.6-0.2-9.2-0.1-13.7c0.1-4.5,0.1-9.1,0.1-13.7V85.8c0-0.9,0-1.9,0-2.7c0-0.9,0.1-1.8,0.3-2.7
			c0.2-0.9,0.5-1.9,1.1-2.8c0.5-0.9,1.1-1.7,1.9-2.4c0.7-0.7,1.6-1.1,2.5-1.3c0.9-0.2,2-0.1,3.1,0.5c1.3,0.7,2.3,1.5,3,2.6
			c0.7,1.1,1.2,2.3,1.5,3.6c0.3,1.3,0.4,2.7,0.4,4.2c0,1.5,0,2.8,0,4v35v14.7c0,2.2,0,4.3,0.1,6.4c0.1,2.1,0.7,4.2,2,6.1
			c1.5,2.4,3.4,4.3,5.8,5.4c2.3,1.2,4.9,1.9,7.6,2c2.7,0.3,5.5,0.2,8.2-0.3c2.8-0.5,5.2-1.6,7.4-3.4c1.8-1.5,3.1-3.3,3.9-5.3
			c0.8-2,1.3-4.2,1.6-6.5c0.3-2.3,0.4-4.6,0.3-7c-0.1-2.3-0.1-4.6-0.1-6.6V110V91.7c0-2.3-0.1-4.7-0.2-7.3c-0.1-2.6,0.3-4.9,1.3-6.9
			c1-1.9,2.5-3.1,4.4-3.7c1.9-0.6,3.7,0,5.3,1.5c1,1.2,1.8,2.5,2.2,3.9c0.4,1.4,0.6,2.9,0.6,4.5v15.8v38.6V138.7z"/>
		<path fill="#FFFFFF" d="M597.3,163.6c1.8,1,2.7,2.3,2.7,3.8c0,1.4-0.9,2.6-2.7,3.6c-1.8,1-3.9,1.5-6.5,1.5h-23.1H557h-1.3
			c-2.4,0-4.4-0.4-5.9-1.2c-1.5-0.8-2.6-1.8-3.4-2.9c-0.8-1.1-1.3-2.3-1.6-3.5c-0.3-1.2-0.5-2.1-0.6-2.9v-1.3v-8.5v-14V123v-14.5
			V94.1v-8c0-2.3,0.3-4.3,0.9-5.8c0.6-1.5,1.4-2.7,2.3-3.6c0.9-0.9,1.9-1.6,3-2c1.1-0.4,2-0.7,2.9-0.9h3.9h10.3h23.1
			c2.5,0,4.7,0.5,6.5,1.5c1.8,1,2.7,2.3,2.7,3.8s-0.9,2.8-2.7,3.9c-1.8,1.1-3.9,1.7-6.5,1.7h-23.1c-2.6,0-4.8,0.9-6.6,2.7
			c-1.8,1.8-2.7,4-2.7,6.6v10.4c0,2.5,0.9,4.7,2.7,6.6c1.8,1.8,4,2.7,6.6,2.7h18.5c2.5,0,4.7,0.6,6.6,1.7c1.8,1.1,2.7,2.4,2.7,3.8
			c0,1.5-0.9,2.8-2.7,3.8c-1.8,1-4,1.5-6.6,1.5h-18.5c-2.6,0-4.8,0.9-6.6,2.8c-1.8,1.9-2.7,4.2-2.7,6.9v17.9c0,2.7,0.9,5,2.7,6.9
			c1.8,1.9,4,2.8,6.6,2.8h23.1C593.4,162.1,595.5,162.6,597.3,163.6z"/>
	</g>
	<g>
		<path fill="#FFFFFF" d="M181.6,235.6c1,0,1.8,0.3,2.5,1c0.7,0.7,1.1,1.6,1.3,2.6c0.1,0.6,0.1,1.3-0.1,2c-0.2,0.7-0.5,1.4-0.8,2
			c-0.4,0.6-0.8,1.2-1.3,1.8c-0.5,0.6-0.9,1.1-1.4,1.5c-1.2,1.1-2.5,2-3.9,2.7c-1.4,0.7-2.9,1.2-4.5,1.5c-1.6,0.3-3.2,0.4-4.8,0.4
			c-1.6,0-3.2-0.2-4.7-0.6c-3.1-0.8-5.7-2.4-7.7-4.7c-2-2.3-3.4-5-4.1-8.1c-0.3-1.3-0.4-2.7-0.4-4.1c0-1.4,0-2.8,0-4.3V222
			c0-1.3,0-2.5-0.1-3.7c-0.1-1.2,0-2.5,0.1-3.7c0.2-1.6,0.4-3.2,0.9-4.7c0.4-1.5,1-3,1.8-4.4c0.8-1.4,1.7-2.6,2.9-3.7
			c1.1-1.1,2.4-2.1,3.9-2.9c1.4-0.7,2.9-1.2,4.5-1.5c1.6-0.3,3.3-0.4,4.9-0.3c1.6,0.1,3.3,0.5,4.8,1c1.6,0.5,3,1.3,4.3,2.3
			c0.8,0.6,1.7,1.4,2.6,2.4c0.9,1,1.6,2.1,2.2,3.2c0.5,1.1,0.7,2.2,0.6,3.4c-0.1,1.1-0.8,2.1-2,2.9c-0.9,0.6-1.8,0.9-2.6,0.7
			c-0.8-0.1-1.5-0.7-1.9-1.7c-0.5-1.2-1-2.3-1.5-3.2c-0.6-1-1.5-1.8-2.7-2.5c-1.3-0.7-2.8-1.1-4.4-1.1c-1.6,0-3.1,0.2-4.4,0.7
			c-1.5,0.4-2.7,1.2-3.6,2.3c-0.9,1.1-1.6,2.4-2.1,3.7c-0.6,1.6-0.9,3.2-0.9,4.9c0,1.7,0,3.3,0,4.9v7c0,1.3,0,2.7-0.1,4
			c-0.1,1.3,0,2.6,0.1,3.7c0.3,1.5,0.9,2.9,1.7,4.1c0.8,1.3,1.9,2.2,3.2,2.8c1.5,0.6,3.1,0.9,4.7,1c1.6,0.1,3.2,0,4.7-0.4
			c1.3-0.3,2.4-0.9,3.4-1.8c1-0.9,1.7-2,2.1-3.2c0.3-0.7,0.6-1.3,1.2-1.8S180.8,235.6,181.6,235.6z"/>
		<path fill="#FFFFFF" d="M235.5,227.4c0,1.5,0,3.1,0,4.6c0,1.5-0.1,3-0.2,4.5c-0.2,1.5-0.5,2.9-0.9,4.4c-0.4,1.4-1.1,2.8-2,4.1
			c-2.1,2.7-4.7,4.6-7.8,5.5c-3.2,1-6.4,1.2-9.7,0.8c-3.3-0.4-6.2-1.5-8.7-3.6c-2.5-2-4.2-4.6-5.3-7.9c-0.6-1.6-0.8-3.2-0.8-4.9
			c0-1.7,0-3.3,0-5v-7.6c0-1.2,0-2.4-0.1-3.6c-0.1-1.2,0-2.3,0.1-3.5c0.1-3.1,0.8-6.1,2-9c1.3-2.9,3.2-5.2,5.8-7
			c1.4-0.9,2.9-1.6,4.5-2c1.6-0.5,3.2-0.7,4.9-0.8c1.7,0,3.3,0.2,5,0.5c1.6,0.4,3.2,1,4.6,1.8c1.5,0.8,2.8,1.8,3.8,3.1
			c1.1,1.2,1.9,2.5,2.6,4c0.7,1.5,1.2,3,1.6,4.6c0.4,1.6,0.6,3.2,0.6,4.8V227.4z M227.9,216c0-1.6-0.2-3.3-0.6-4.9s-1.3-3.1-2.4-4.2
			c-1.2-1.2-2.6-2-4.3-2.4c-1.7-0.4-3.3-0.4-4.9-0.1c-2.4,0.4-4.1,1.4-5.3,2.9c-1.1,1.5-1.9,3.2-2.4,5.2c-0.4,2-0.6,4.1-0.6,6.2
			c0,2.2,0.1,4.1,0.1,5.9v6.6c0,1,0,2.1,0,3.1s0.2,2.1,0.4,3.1c0.2,1,0.6,1.9,1.1,2.7c0.5,0.9,1.2,1.6,2.2,2.3
			c1.3,1,2.8,1.5,4.5,1.7c1.7,0.2,3.3,0.1,4.7-0.2c1.5-0.3,2.8-0.8,4-1.7c1.2-0.9,2.1-2,2.6-3.4c0.6-1.3,0.8-2.6,0.8-3.9
			c0-1.3,0-2.6,0-4c0-2.5,0-4.9-0.1-7.4C227.8,221,227.8,218.5,227.9,216z"/>
		<path fill="#FFFFFF" d="M280.4,197.1c1,0,1.9,0.5,2.6,1.5c0.7,1,1.1,2.3,1.1,3.8v43.4c0,1.5-0.4,2.7-1.1,3.7
			c-0.7,1-1.6,1.5-2.6,1.5c-0.5,0-1.1-0.1-1.6-0.3c-0.6-0.2-1.1-0.6-1.7-1c-0.5-0.4-1-0.9-1.5-1.5c-0.5-0.5-0.9-1.1-1.2-1.7
			l-15.3-30c-0.6-1.3-1.1-1.9-1.5-1.8c-0.5,0.1-0.7,0.9-0.7,2.2v28.8c0,1.5-0.4,2.7-1.1,3.7c-0.7,1-1.6,1.5-2.6,1.5
			c-1,0-1.9-0.5-2.6-1.5c-0.7-1-1-2.3-1-3.7v-43.4c0-1.5,0.3-2.8,1-3.8c0.7-1,1.6-1.5,2.6-1.5c1,0,2.1,0.5,3.3,1.4
			c1.2,0.9,2.1,2.1,2.6,3.5l15.3,29.9c0.6,1.3,1.1,1.9,1.6,1.7c0.5-0.1,0.7-0.9,0.7-2.4v-28.7c0-1.5,0.3-2.8,1-3.8
			C278.6,197.6,279.4,197.1,280.4,197.1z"/>
		<path fill="#FFFFFF" d="M329.2,235.6c1,0,1.8,0.3,2.5,1c0.7,0.7,1.1,1.6,1.3,2.6c0.1,0.6,0.1,1.3-0.1,2c-0.2,0.7-0.5,1.4-0.8,2
			c-0.4,0.6-0.8,1.2-1.3,1.8c-0.5,0.6-0.9,1.1-1.4,1.5c-1.2,1.1-2.5,2-3.9,2.7c-1.4,0.7-2.9,1.2-4.5,1.5c-1.6,0.3-3.2,0.4-4.8,0.4
			c-1.6,0-3.2-0.2-4.7-0.6c-3.1-0.8-5.7-2.4-7.7-4.7c-2-2.3-3.4-5-4.1-8.1c-0.3-1.3-0.4-2.7-0.4-4.1c0-1.4,0-2.8,0-4.3V222
			c0-1.3,0-2.5-0.1-3.7c-0.1-1.2,0-2.5,0.1-3.7c0.2-1.6,0.4-3.2,0.9-4.7c0.4-1.5,1-3,1.8-4.4c0.8-1.4,1.7-2.6,2.9-3.7
			c1.1-1.1,2.4-2.1,3.9-2.9c1.4-0.7,2.9-1.2,4.5-1.5c1.6-0.3,3.3-0.4,4.9-0.3c1.6,0.1,3.2,0.5,4.8,1c1.6,0.5,3,1.3,4.3,2.3
			c0.8,0.6,1.7,1.4,2.6,2.4c0.9,1,1.6,2.1,2.2,3.2c0.5,1.1,0.7,2.2,0.6,3.4c-0.1,1.1-0.8,2.1-2,2.9c-0.9,0.6-1.8,0.9-2.6,0.7
			c-0.8-0.1-1.5-0.7-1.9-1.7c-0.5-1.2-1-2.3-1.5-3.2c-0.6-1-1.5-1.8-2.7-2.5c-1.3-0.7-2.8-1.1-4.4-1.1c-1.6,0-3.1,0.2-4.4,0.7
			c-1.5,0.4-2.7,1.2-3.6,2.3c-0.9,1.1-1.6,2.4-2.1,3.7c-0.6,1.6-0.9,3.2-0.9,4.9c0,1.7,0,3.3,0,4.9v7c0,1.3,0,2.7-0.1,4
			c-0.1,1.3,0,2.6,0.1,3.7c0.3,1.5,0.9,2.9,1.7,4.1c0.8,1.3,1.9,2.2,3.2,2.8c1.5,0.6,3.1,0.9,4.7,1c1.6,0.1,3.2,0,4.7-0.4
			c1.3-0.3,2.4-0.9,3.4-1.8c1-0.9,1.7-2,2.1-3.2c0.3-0.7,0.6-1.3,1.2-1.8C327.7,235.8,328.4,235.6,329.2,235.6z"/>
		<path fill="#FFFFFF" d="M379.1,246.2c1,0.6,1.5,1.3,1.5,2.1c0,0.8-0.5,1.4-1.5,2c-1,0.5-2.2,0.8-3.6,0.8h-12.7H357h-0.7
			c-1.3,0-2.4-0.2-3.2-0.7s-1.4-1-1.9-1.6c-0.4-0.6-0.7-1.3-0.9-1.9s-0.3-1.2-0.3-1.6v-0.7V240v-7.6V224v-8v-7.9v-4.4
			c0-1.3,0.2-2.3,0.5-3.2c0.3-0.8,0.8-1.5,1.3-2c0.5-0.5,1.1-0.8,1.7-1.1c0.6-0.2,1.1-0.4,1.6-0.5h2.2h5.6h12.7
			c1.4,0,2.6,0.3,3.6,0.8c1,0.6,1.5,1.3,1.5,2.1c0,0.8-0.5,1.5-1.5,2.2s-2.2,0.9-3.6,0.9h-12.7c-1.4,0-2.7,0.5-3.6,1.5
			c-1,1-1.5,2.2-1.5,3.6v5.7c0,1.4,0.5,2.6,1.5,3.6c1,1,2.2,1.5,3.6,1.5H373c1.4,0,2.6,0.3,3.6,0.9c1,0.6,1.5,1.3,1.5,2.1
			c0,0.8-0.5,1.5-1.5,2.1c-1,0.6-2.2,0.8-3.6,0.8h-10.1c-1.4,0-2.7,0.5-3.6,1.5c-1,1-1.5,2.3-1.5,3.8v9.8c0,1.5,0.5,2.8,1.5,3.8
			c1,1,2.2,1.5,3.6,1.5h12.7C376.9,245.4,378.1,245.6,379.1,246.2z"/>
		<path fill="#FFFFFF" d="M423,199.5c2.7,1.2,4.9,2.9,6.4,5.3c1.5,2.3,2.3,4.9,2.3,7.9c0.1,2.5-0.3,4.8-1.3,6.9
			c-1,2.1-2.5,4-4.5,5.4c-2,1.5-4.3,2.6-7,3.2c-2.6,0.7-5.2,1-7.8,0.8c-1.2,0-2.3,0.1-3.3,0.3c-1,0.2-1.9,0.9-2.6,2.1
			c-0.3,0.6-0.4,1.2-0.4,1.9c0,0.6,0,1.3,0,1.9v4.9c0,0.7,0,1.5,0,2.3c0,0.8,0,1.6,0,2.4c0,0.8-0.1,1.6-0.3,2.4
			c-0.2,0.8-0.4,1.5-0.8,2.1c-0.7,1-1.6,1.6-2.7,1.6c-1.1,0.1-2-0.4-2.8-1.5c-0.4-0.6-0.7-1.2-0.8-2c-0.1-0.7-0.2-1.5-0.2-2.3v-17.9
			v-17.3v-5.9c0-0.9,0-1.8,0-2.7c0-0.8,0.3-1.7,0.8-2.4c0.8-1,1.8-1.6,3-1.8c1.2-0.2,2.4-0.3,3.5-0.3h7.4h-0.7
			C415.4,196.9,419.3,197.8,423,199.5z M415.5,223.1c1.1-0.2,2.2-0.5,3.3-1c1.1-0.5,2-1.1,2.9-1.8c0.9-0.7,1.5-1.6,2.1-2.5
			c0.5-1,0.9-2,1-3.2c0.2-1.4,0.1-2.7-0.2-4c-0.3-1.3-0.8-2.4-1.6-3.4c-0.7-1-1.7-1.9-2.7-2.6c-1.1-0.7-2.3-1.2-3.6-1.5
			c-0.6-0.1-1.2-0.2-1.8-0.2c-0.6,0-1.1,0-1.6,0c-0.7,0-1.4,0-2.2,0c-0.7,0-1.4,0.1-2.1,0.3c-1.8,0.3-3.1,1.3-3.9,3
			c-0.4,0.9-0.6,2-0.5,3.2c0.1,1.2,0.1,2.3,0.1,3.3c0,1,0,2.1-0.1,3.2c-0.1,1.1,0,2.2,0.3,3.2c0.4,1.2,0.9,2.1,1.7,2.7
			c0.8,0.6,1.7,1,2.7,1.2c1,0.2,2.1,0.3,3.2,0.3C413.6,223.3,414.6,223.2,415.5,223.1z"/>
		<path fill="#FFFFFF" d="M485,200.2c0,0.8-0.5,1.5-1.6,2.1c-1,0.6-2.3,0.9-3.8,0.9l-6.6-0.1c-1.5,0-2.8,0.5-3.8,1.5
			c-1,1-1.6,2.2-1.6,3.6l-0.3,37.7c0,1.5-0.4,2.7-1.2,3.8c-0.8,1-1.7,1.5-2.7,1.5c-1.2,0-2.2-0.5-3-1.6c-0.8-1-1.2-2.3-1.2-3.8
			l0.3-37.7c0-1.4-0.5-2.6-1.5-3.6c-1-1-2.3-1.5-3.8-1.5l-6.7-0.1c-1.4,0-2.6-0.3-3.7-0.9c-1.1-0.6-1.6-1.3-1.6-2.1
			c0-0.8,0.6-1.5,1.6-2.1c1.1-0.6,2.3-0.9,3.7-0.9l6.7,0.1l9.5,0.1l9.3,0.1l6.6,0.1c1.5,0,2.8,0.3,3.8,0.9
			C484.5,198.6,485.1,199.3,485,200.2z"/>
	</g>
</g>
</svg>
