<svg id="Layer_1" data-name="Layer 1" xmlns="http://www.w3.org/2000/svg" viewBox="0 0 1920 500" preserveAspectRatio="none">

<!-- <path class="st0" d="M0,0v80h0l0,329.08c45.08,10.7,123.38,16.45,217.98,34.55C609,518.46,1026.97,509.66,1138,455.95
	c116.34-56.28,267.04-224.62,380.86-285.02c59.31-31.48,113.69-64.29,232.98-78.01c57.96-6.67,126.99-11.03,167.98-12.91h0.18V0H0z"
	/> -->
	<path class="st0" d="M0,0v80h0l0,329.08c45.08,10.7,123.38,16.45,217.98,34.55C609,518.46,1052.97,509.66,1164,455.95
	c116.34-56.28,282.04-204.62,395.86-265.02c59.31-31.48,106.96-65.88,224.98-88.01C1843,92,1878.82,85.88,1919.82,84h0.18V0H0z"/>
	
	</svg>
