<svg x="0px" y="0px" width="84px" height="85.8px" viewBox="0 0 84 85.8" style="enable-background:new 0 0 84 85.8;"
	 preserveAspectRatio="none">
	<path d="M28.9,58.5v10.3h24.2V58.5H28.9z M50.6,66.3H31.4V61h19.2L50.6,66.3L50.6,66.3z"/>
	<path d="M64.9,83.3v-2.1h9.8v-2.5h-9.8v-3H59V51.5h5.8V41.3h-13l2.9-10.4c0-0.1,0-0.2,0-0.3c0,0,0,0,0,0c0-0.1,0-0.2,0-0.3
		l-5.2-17.8c-0.1-0.3-0.3-0.5-0.5-0.7L31.1,0.2c-0.5-0.3-1-0.2-1.4,0.1c0,0-0.1,0.1-0.1,0.1c-0.1,0.1-0.1,0.1-0.2,0.2c0,0,0,0,0,0
		s0,0,0,0L18.6,20.3c-0.2,0.4-0.2,0.8,0,1.2l11,19.8H17.1v10.2h5.4v24.2h-5.4v3H8v2.5h9.1v2.1H0v2.5h84v-2.5H64.9z M51.6,28.5
		l-16-6.5L32.2,3.9l15,9.7L51.6,28.5z M29.8,4.9l3.4,18l-2.7,15l-9.4-17L29.8,4.9z M35.5,24.6L52,31.3l-2.8,10H32.5L35.5,24.6z
		 M19.6,43.8h42.8V49H19.6V43.8z M25,51.5h31.5v24.2H25V51.5z M62.4,83.3H19.6v-5.2h42.8V83.3z"/>
</svg>
